<?xml version="1.0" standalone="no"?>
<!DOCTYPE svg PUBLIC "-//W3C//DTD SVG 20010904//EN"
 "http://www.w3.org/TR/2001/REC-SVG-20010904/DTD/svg10.dtd">
<svg version="1.0" xmlns="http://www.w3.org/2000/svg"
 width="300.000000pt" height="223.000000pt" viewBox="0 0 300.000000 223.000000"
 preserveAspectRatio="xMidYMid meet">
<metadata>
Created by potrace 1.10, written by Peter Selinger 2001-2011
</metadata>
<g transform="translate(0.000000,223.000000) scale(0.100000,-0.100000)"
fill="#5f5f5f" stroke="none">
<path d="M445 1800 c-220 -220 -406 -400 -412 -400 -7 0 -13 -7 -13 -16 0 -8
5 -12 11 -8 12 7 809 -783 809 -803 0 -7 5 -13 11 -13 5 0 8 4 5 9 -4 5 -2 11
4 13 5 1 310 303 678 670 368 368 671 668 674 668 11 0 528 -519 528 -530 0
-10 -518 -530 -528 -530 -11 0 -282 275 -282 287 0 6 9 15 20 18 34 11 22 23
-27 29 -63 7 -171 24 -205 32 -26 6 -27 5 -22 -32 3 -22 10 -52 14 -69 5 -16
12 -60 16 -97 3 -38 10 -68 15 -68 4 0 15 10 23 22 15 22 20 18 238 -200 122
-122 224 -220 226 -217 3 3 1 5 -4 5 -5 0 167 177 382 393 389 390 391 392
388 431 -2 37 -22 59 -385 422 -211 211 -388 384 -394 384 -5 -1 -314 -302
-685 -670 -371 -368 -677 -670 -680 -670 -13 0 -520 517 -520 530 0 8 117 132
260 275 l260 260 138 -135 c77 -74 140 -143 141 -152 0 -9 -7 -21 -16 -27 -24
-13 -11 -23 34 -27 41 -3 134 -17 196 -29 43 -9 42 -19 11 106 -8 31 -14 77
-14 102 0 54 -12 66 -34 35 -16 -22 -18 -21 -229 190 -117 116 -217 212 -222
212 -6 0 -190 -180 -410 -400z m839 -38 c22 -3 26 -10 31 -50 3 -26 10 -62 14
-79 14 -49 8 -50 -122 -21 -36 8 -47 14 -43 25 4 10 -47 69 -151 174 l-158
159 -279 -277 c-216 -215 -278 -282 -278 -301 0 -20 60 -86 269 -294 148 -147
277 -268 286 -268 10 0 317 298 683 663 366 364 670 663 674 665 10 4 770
-751 770 -765 0 -9 -754 -766 -768 -771 -4 -1 -99 90 -211 202 -113 113 -213
206 -225 208 -17 2 -22 12 -27 53 -3 28 -9 63 -14 78 l-7 28 53 -7 c30 -4 62
-11 71 -15 9 -5 26 -9 38 -9 17 0 21 -4 16 -17 -5 -13 31 -55 142 -165 82 -81
157 -148 167 -148 10 0 136 118 286 268 206 206 269 274 269 293 0 18 -64 88
-277 301 l-278 277 -678 -675 c-373 -370 -680 -674 -681 -674 -1 0 -177 174
-391 386 l-389 385 390 390 389 389 202 -203 c137 -137 210 -203 227 -205z"/>
<path d="M2236 2017 c3 -10 9 -15 12 -12 3 3 0 11 -7 18 -10 9 -11 8 -5 -6z"/>
<path d="M780 1980 c-18 -22 -40 -40 -47 -40 -7 0 -12 -3 -11 -7 1 -5 -39 -49
-90 -98 -51 -50 -92 -90 -92 -89 0 1 -33 -32 -72 -73 -40 -42 -104 -105 -141
-141 -38 -37 -63 -68 -58 -70 13 -4 241 225 241 241 0 6 2 8 5 5 7 -7 95 80
95 93 0 6 4 8 9 4 6 -3 21 11 35 32 15 21 26 35 26 32 0 -3 34 28 75 68 41 40
75 75 75 78 0 15 -20 1 -50 -35z"/>
<path d="M890 2004 c0 -11 49 -58 55 -53 5 6 -5 20 -32 43 -13 11 -23 15 -23
10z"/>
<path d="M2155 1996 c-23 -25 -26 -40 -4 -19 12 12 21 24 18 27 -2 2 -9 -1
-14 -8z"/>
<path d="M2260 2000 c0 -6 7 -13 15 -16 8 -4 15 -11 15 -16 0 -6 23 -33 50
-60 28 -27 50 -45 50 -38 0 6 -29 40 -65 76 -36 36 -65 60 -65 54z"/>
<path d="M2082 1926 c-18 -19 -32 -39 -32 -45 0 -6 16 7 36 29 45 49 41 63 -4
16z"/>
<path d="M960 1938 c0 -16 85 -98 100 -98 6 0 8 5 5 10 -4 6 -11 8 -16 5 -5
-4 -9 -3 -9 2 0 4 -18 27 -40 51 -22 24 -40 37 -40 30z"/>
<path d="M2015 1860 c-10 -11 -13 -20 -8 -20 13 0 38 29 31 35 -3 3 -13 -4
-23 -15z"/>
<path d="M2400 1861 c0 -6 23 -34 50 -63 28 -29 50 -48 50 -43 0 14 -20 43
-20 30 0 -5 -8 2 -18 18 -10 15 -22 24 -25 20 -4 -3 -7 1 -7 9 0 9 -7 21 -15
28 -10 8 -15 9 -15 1z"/>
<path d="M1951 1794 c-45 -49 -35 -51 13 -3 21 21 34 39 29 39 -6 0 -24 -16
-42 -36z"/>
<path d="M1833 1677 c-40 -40 -73 -76 -73 -79 0 -7 122 110 140 135 24 33 5
17 -67 -56z"/>
<path d="M2531 1729 c0 -9 6 -22 14 -29 12 -10 15 -9 15 4 0 10 -4 15 -9 11
-5 -3 -12 3 -14 12 -4 15 -5 15 -6 2z"/>
<path d="M2570 1693 c0 -6 8 -17 18 -24 16 -13 16 -13 2 6 -8 11 -16 22 -17
24 -2 2 -3 0 -3 -6z"/>
<path d="M2606 1651 c-3 -4 33 -43 79 -87 92 -87 115 -107 115 -100 0 10 -120
122 -125 117 -3 -2 -5 1 -5 7 0 15 -59 72 -64 63z"/>
<path d="M1679 1523 c-35 -37 -57 -62 -48 -55 9 6 19 8 23 4 4 -4 6 -2 4 5 -1
7 19 32 47 57 27 25 47 47 44 50 -3 3 -34 -25 -70 -61z"/>
<path d="M138 1397 c40 -48 125 -128 130 -123 7 7 -118 135 -132 136 -5 0 -4
-6 2 -13z"/>
<path d="M1500 1345 c-35 -36 -60 -65 -56 -65 9 0 85 75 115 113 27 35 4 15
-59 -48z"/>
<path d="M2865 1350 c-33 -32 -95 -95 -137 -139 -43 -43 -78 -77 -78 -73 0 3
-11 -8 -23 -26 -13 -17 -27 -29 -30 -25 -4 3 -7 1 -7 -5 0 -6 -6 -17 -14 -24
-66 -60 -236 -234 -236 -240 0 -4 -4 -8 -8 -8 -5 0 -32 -22 -61 -50 -29 -27
-59 -50 -66 -50 -7 0 -31 21 -54 46 -22 25 -41 42 -41 37 0 -5 20 -29 45 -53
25 -24 45 -50 45 -57 0 -7 5 -13 10 -13 6 0 10 4 10 10 0 12 231 240 243 240
5 0 5 5 2 10 -3 6 -2 10 2 10 11 0 303 291 303 302 0 4 7 8 15 8 8 0 15 4 15
9 0 4 21 30 48 57 99 103 113 129 17 34z"/>
<path d="M276 1261 c-4 -6 -3 -11 3 -11 5 0 24 -16 43 -36 18 -20 46 -48 62
-63 16 -14 63 -61 105 -105 68 -70 96 -98 153 -153 10 -9 20 -14 23 -11 3 2
-16 25 -43 49 -26 25 -61 61 -79 80 -111 119 -261 260 -267 250z"/>
<path d="M1385 1230 c-16 -16 -24 -30 -19 -30 6 0 23 14 39 30 16 17 24 30 19
30 -6 0 -23 -13 -39 -30z"/>
<path d="M1279 1123 c-36 -38 -71 -77 -79 -88 -7 -11 7 1 31 27 24 25 64 64
89 87 25 22 40 41 35 41 -6 0 -40 -30 -76 -67z"/>
<path d="M1890 1007 c24 -26 46 -47 48 -47 9 0 -27 40 -58 65 -29 24 -28 21
10 -18z"/>
<path d="M1105 950 c-16 -16 -25 -30 -22 -30 4 0 21 14 37 30 16 17 26 30 22
30 -5 0 -21 -13 -37 -30z"/>
<path d="M1980 917 c0 -2 13 -19 29 -38 19 -21 29 -27 27 -17 -2 15 -56 67
-56 55z"/>
<path d="M705 830 c21 -22 44 -40 49 -40 6 0 -8 18 -29 40 -21 22 -44 40 -49
40 -6 0 8 -18 29 -40z"/>
<path d="M951 795 c-41 -41 -70 -75 -67 -75 11 0 150 140 144 145 -2 3 -37
-29 -77 -70z"/>
<path d="M2060 831 c0 -6 4 -12 8 -15 5 -3 9 1 9 9 0 8 -4 15 -9 15 -4 0 -8
-4 -8 -9z"/>
<path d="M2091 804 c0 -11 3 -14 6 -6 3 7 2 16 -1 19 -3 4 -6 -2 -5 -13z"/>
<path d="M760 768 c0 -6 3 -8 7 -5 3 4 16 -5 29 -18 13 -14 26 -25 30 -25 4 0
-5 14 -21 30 -30 32 -45 38 -45 18z"/>
<path d="M840 689 c7 -11 13 -19 14 -17 1 1 8 11 15 21 12 15 11 17 -13 17
-24 0 -26 -2 -16 -21z"/>
<path d="M659 1565 l-176 -175 176 -175 c97 -96 181 -175 186 -175 6 0 35 25
65 55 l53 56 -123 119 -124 120 124 118 125 119 -56 57 c-31 31 -60 56 -65 56
-5 0 -88 -79 -185 -175z m231 100 l34 -35 -112 -113 c-62 -62 -112 -120 -112
-128 0 -9 51 -66 112 -127 l113 -111 -35 -36 c-19 -19 -40 -35 -47 -35 -17 0
-313 295 -313 312 0 15 299 308 314 308 7 0 27 -16 46 -35z"/>
<path d="M2160 1684 l-55 -55 118 -115 c64 -64 117 -119 117 -124 0 -5 -53
-60 -117 -124 l-118 -115 55 -56 c30 -30 60 -54 67 -53 13 3 353 338 353 347
0 11 -345 351 -355 351 -6 0 -35 -25 -65 -56z m225 -454 l-160 -160 -40 40
-39 40 103 103 c103 104 121 124 121 140 0 5 -50 60 -112 123 l-112 114 39 40
39 40 161 -160 160 -160 -160 -160z"/>
<path d="M76 384 c-3 -9 -6 -78 -6 -154 0 -148 5 -165 52 -158 20 3 23 9 26
55 2 29 4 53 6 53 2 0 16 -6 32 -14 28 -13 61 -28 168 -75 52 -22 101 -27 111
-11 15 24 -8 46 -71 71 -36 14 -66 29 -67 34 -1 5 16 10 38 11 87 3 128 42
123 115 -3 36 -8 47 -37 66 -32 22 -44 23 -201 23 -144 0 -169 -2 -174 -16z
m64 -23 c0 -6 -4 -13 -10 -16 -18 -11 -11 -74 10 -95 17 -17 33 -20 105 -20
l85 0 -15 -24 c-15 -23 -15 -25 17 -49 18 -14 46 -31 62 -37 16 -6 26 -13 23
-16 -6 -6 -95 27 -187 70 -30 14 -60 26 -67 26 -22 0 -43 -32 -43 -66 0 -19
-4 -34 -10 -34 -6 0 -10 52 -10 135 0 128 1 135 20 135 11 0 20 -4 20 -9z
m308 -14 c13 -10 16 -75 4 -93 -9 -13 -75 -37 -67 -24 4 6 13 10 20 10 17 0
35 30 35 58 0 11 -9 31 -21 46 -18 23 -19 25 -2 19 10 -3 24 -10 31 -16z m-36
-30 c6 -12 10 -24 9 -27 -14 -27 -31 -30 -147 -30 l-124 0 0 38 c0 21 2 41 4
43 2 2 59 3 125 1 113 -3 122 -5 133 -25z"/>
<path d="M1277 394 c-4 -4 -7 -18 -7 -32 0 -15 -7 -26 -20 -29 -27 -7 -27 -49
0 -56 17 -4 20 -15 22 -103 3 -90 5 -99 23 -102 41 -5 48 11 49 109 l2 94 39
0 c22 0 45 4 52 8 9 6 13 -18 15 -100 l3 -108 27 -3 c32 -4 53 27 44 64 -10
40 13 38 125 -12 114 -51 162 -62 184 -44 28 23 -4 50 -110 90 -32 12 -33 34
-1 26 29 -7 106 18 124 41 6 9 12 38 12 64 0 43 -4 51 -34 74 -33 25 -34 25
-202 23 l-169 -3 -3 -38 c-3 -33 -5 -36 -23 -27 -11 6 -24 8 -30 5 -22 -14
-58 5 -61 33 -2 20 -9 28 -28 30 -14 2 -29 0 -33 -4z m228 -62 c-11 -30 -11
-41 1 -64 19 -36 44 -41 170 -36 58 3 101 1 97 -3 -4 -4 -23 -9 -42 -11 -19
-2 -39 -11 -45 -21 -9 -15 -6 -23 18 -43 15 -14 41 -28 57 -31 32 -6 52 -25
22 -20 -10 1 -69 24 -131 51 -109 46 -114 47 -133 30 -10 -9 -19 -30 -19 -45
0 -15 -4 -31 -10 -34 -6 -4 -10 16 -11 52 -2 69 -4 92 -13 126 -3 15 -2 35 3
44 5 10 12 26 15 35 3 10 11 15 19 12 12 -4 12 -11 2 -42z m-185 23 c0 -8 9
-23 19 -32 19 -15 19 -17 3 -29 -13 -9 -18 -33 -22 -101 -6 -111 -24 -112 -28
-1 -2 55 -8 88 -18 99 -12 14 -12 18 6 34 11 10 20 24 20 32 0 7 5 13 10 13 6
0 10 -7 10 -15z m498 -6 c27 -24 25 -85 -4 -106 -25 -18 -27 -11 -7 25 15 26
15 34 4 55 -7 14 -23 30 -35 35 -21 11 -21 11 0 11 11 1 30 -8 42 -20z m-38
-23 c6 -8 10 -25 8 -38 -3 -23 -5 -23 -133 -23 l-130 0 2 35 c1 19 2 36 2 38
1 1 54 2 120 2 91 0 121 -3 131 -14z"/>
<path d="M1897 387 c-13 -10 -15 -38 -14 -162 2 -148 2 -150 25 -153 47 -7 53
11 51 142 -1 67 0 126 1 131 8 34 -36 63 -63 42z m33 -157 c0 -80 -4 -130 -10
-130 -6 0 -10 50 -10 130 0 80 4 130 10 130 6 0 10 -50 10 -130z"/>
<path d="M2371 382 c-6 -10 -7 -74 -4 -155 6 -142 13 -162 50 -155 15 3 19 17
23 103 l5 100 81 3 c44 2 92 -2 107 -7 26 -10 27 -13 27 -94 0 -88 8 -107 46
-107 30 0 35 20 33 120 -2 67 1 85 12 85 11 0 15 -22 17 -95 2 -52 7 -99 12
-104 5 -5 20 -6 34 -2 25 6 25 9 28 104 3 97 3 97 28 95 49 -4 70 6 70 32 0
26 -3 28 -60 29 -30 1 -35 5 -40 31 -4 25 -10 31 -38 33 -30 3 -32 1 -32 -28
0 -23 -5 -33 -19 -37 -11 -3 -22 -12 -25 -20 -5 -13 -9 -13 -23 -2 -11 9 -56
16 -137 19 l-121 5 -3 33 c-3 28 -7 32 -32 32 -18 0 -33 -7 -39 -18z m49 -31
c0 -10 7 -24 15 -31 14 -11 14 -15 1 -29 -10 -11 -16 -44 -18 -99 -5 -132 -23
-98 -26 48 -2 111 0 130 13 130 8 0 15 -8 15 -19z m403 -11 c13 -21 27 -30 45
-31 l27 -2 -27 -4 c-40 -6 -47 -21 -50 -111 -4 -108 -22 -107 -26 2 -2 58 -7
88 -17 96 -13 11 -12 16 5 37 11 14 17 29 14 34 -3 5 -1 9 3 9 5 0 17 -13 26
-30z m-113 -150 c0 -53 -4 -90 -10 -90 -6 0 -10 32 -10 75 0 67 -3 79 -24 100
-30 30 -23 39 15 19 29 -14 29 -16 29 -104z"/>
<path d="M655 332 c-137 -5 -155 -20 -155 -133 0 -74 1 -78 31 -104 28 -23 39
-26 98 -23 63 3 66 4 66 28 0 22 -5 26 -45 30 -48 6 -70 15 -70 30 0 5 60 11
133 12 l132 3 3 56 c2 45 -1 58 -18 74 -24 22 -81 31 -175 27z m153 -44 c7 -7
12 -29 12 -50 0 -32 -3 -38 -22 -38 -20 0 -20 1 -5 18 10 10 17 25 17 32 0 7
-7 22 -17 32 -18 20 -4 25 15 6z m-256 -10 c-16 -16 -15 -43 3 -58 11 -9 14
-22 9 -46 -5 -28 -2 -38 17 -54 26 -21 15 -26 -25 -10 -25 9 -26 13 -26 83 0
64 10 97 29 97 3 0 0 -5 -7 -12z m227 -13 c12 -11 12 -17 1 -29 -10 -12 -33
-16 -104 -16 -101 0 -127 9 -110 37 6 10 24 21 40 25 43 10 157 -1 173 -17z"/>
<path d="M593 263 c-36 -14 -3 -23 82 -23 90 0 122 10 73 24 -27 7 -138 7
-155 -1z"/>
<path d="M953 332 c-17 -2 -43 -14 -57 -27 -25 -23 -26 -29 -26 -124 0 -98 1
-101 24 -107 41 -10 46 2 46 96 0 106 1 107 106 109 49 1 75 -3 82 -12 6 -7
12 -51 14 -96 2 -67 7 -86 20 -95 13 -8 23 -8 35 0 14 9 19 28 21 94 3 92 -8
131 -42 149 -21 12 -155 19 -223 13z m235 -138 c-4 -109 -22 -115 -26 -9 -2
44 -7 84 -12 89 -6 6 -10 16 -10 23 0 10 6 10 25 -3 25 -16 26 -20 23 -100z
m-256 83 c-6 -7 -12 -49 -14 -92 -2 -49 -7 -78 -13 -75 -6 3 -9 39 -7 85 2 60
7 83 19 92 20 15 30 9 15 -10z"/>
<path d="M2099 330 c-25 -3 -58 -14 -73 -23 -26 -18 -27 -20 -24 -105 3 -86 3
-86 38 -110 32 -22 42 -23 108 -18 41 3 72 2 72 -3 0 -6 -15 -11 -32 -13 -25
-2 -34 -8 -36 -25 -3 -22 0 -23 64 -23 57 0 72 4 101 26 l33 25 0 109 c0 106
-1 109 -27 129 -14 12 -36 24 -47 27 -32 7 -126 10 -177 4z m-27 -43 c-18 -19
-22 -35 -22 -84 0 -55 3 -64 26 -82 23 -18 24 -21 7 -21 -10 0 -29 9 -41 21
-19 17 -22 30 -21 85 2 60 4 65 33 84 40 26 44 25 18 -3z m131 16 c-13 -2 -35
-2 -50 0 -16 2 -5 4 22 4 28 0 40 -2 28 -4z m89 -15 c15 -7 29 -22 32 -33 8
-30 7 -168 -2 -181 -19 -27 -59 -44 -102 -43 -25 1 -35 4 -23 6 31 6 49 31 35
45 -19 19 -14 28 16 28 41 0 52 17 52 84 0 60 -17 96 -47 96 -7 0 -13 5 -13
11 0 11 6 10 52 -13z m-53 -19 c17 -6 31 -14 32 -17 0 -4 1 -32 2 -62 l1 -55
-88 -3 c-56 -2 -93 1 -102 9 -21 18 -19 115 4 128 23 14 111 14 151 0z"/>
</g>
</svg>
